<?xml version="1.0" encoding="UTF-8" standalone="no"?>
<!DOCTYPE svg PUBLIC "-//W3C//DTD SVG 1.1//EN" "http://www.w3.org/Graphics/SVG/1.1/DTD/svg11.dtd">
<svg width="100%" height="100%" viewBox="0 0 995 479" version="1.1" xmlns="http://www.w3.org/2000/svg" xmlns:xlink="http://www.w3.org/1999/xlink" xml:space="preserve" xmlns:serif="http://www.serif.com/" style="fill-rule:evenodd;clip-rule:evenodd;stroke-linejoin:round;stroke-miterlimit:2;">
    <g transform="matrix(1,0,0,1,-464.838,-247.564)">
        <g id="Layer-1" serif:id="Layer 1">
            <g transform="matrix(1,0,0,1,824.106,462.674)">
                <path d="M0,36.513C16.779,25.507 37.113,16.517 59.919,10.209C59.633,11.686 59.173,13.375 58.404,14.951C57.724,16.325 56.917,17.755 56.205,19.143C35.866,23.448 16.958,29.333 0,36.513M90.753,3.597C105.773,1.242 121.512,0 137.747,0C192.231,0 241.279,14.074 275.49,36.513C237.5,20.428 189.685,10.847 137.747,10.847C118.585,10.847 99.982,12.146 82.232,14.598C83.376,13.271 84.323,12.066 84.83,11.419C85.486,10.547 86.818,7.494 87.629,6.678C88.643,5.67 89.684,4.642 90.753,3.597" style="fill:rgb(236,124,7);fill-rule:nonzero;"/>
            </g>
            <g transform="matrix(1,0,0,1,900.911,345.174)">
                <path d="M0,51.267C1.473,51.82 16.029,55.253 26.407,42.258C29.892,37.906 57.387,9.876 63.666,3.442L63.051,2.12C54.395,8.817 2.706,48.308 0,51.267M65.176,6.613L64.44,5.037L27.532,46.09C27.532,46.09 37.606,47.023 43.224,39.843C43.815,39.079 59.989,14.477 65.176,6.613M47.313,39.267C50.741,37.953 54.76,35.355 56.969,32.795C60.795,26.994 64.547,17.432 66.738,11.335C66.522,10.299 66.245,9.305 65.898,8.385C61.307,16.362 49.836,36.143 47.313,39.267M90.374,-26.004C95.447,-21.215 83.085,-19.241 80.309,-21.215C79.7,-21.314 77.256,-23.283 74.424,-23.499C72.792,-23.626 69.265,-19.902 66.264,-19.016C64.683,-18.547 61.94,-19.771 59.239,-18.627C58.939,-18.495 58.629,-18.34 58.329,-18.149C56.674,-17.088 54.544,-14.969 53.809,-13.525L52.678,-12.08C50.563,-9.712 47.397,-6.992 46.305,-6.232C45.02,-5.322 42.511,-3.512 41.357,-1.955C39.542,0.516 37.737,3.231 37.287,3.954C36.832,4.699 34.614,5.435 32.916,6.542C28.888,9.206 20.081,18.177 14.195,23.781C11.189,26.3 13.914,26.862 18.186,23.997C23.303,20.246 27.523,16.888 28.555,15.654C30.792,12.976 34.914,8.268 37.803,10.688C38.014,10.857 39.378,9.342 40.368,7.115C42.511,2.251 48.8,-2.785 55.628,-7.311C58.479,-9.205 60.308,-9.412 63.267,-11.634C63.849,-12.066 64.787,-14.097 65.833,-15.396C66.119,-15.682 66.367,-15.935 66.583,-16.108C67.643,-16.962 68.191,-15.316 68.801,-14.556C69.795,-13.351 72.768,-13.942 73.42,-12.736C78.508,-3.432 87.939,-6.893 90.749,-8.258C92.906,-9.28 92.146,-12.282 93.942,-13.445C95.743,-14.603 96.732,-11.982 99.001,-12.755C100.24,-13.177 103.818,-15.775 102.407,-19.241C101.661,-21.066 99.175,-23.138 99.208,-24.761C99.241,-26.388 102.683,-23.584 103.312,-24.446C105.548,-27.396 105.754,-29.249 107.645,-32.086C112.179,-38.904 117.211,-45.203 122.084,-47.351C124.312,-48.345 125.822,-49.7 125.658,-49.901C123.219,-52.8 127.932,-56.922 130.619,-59.168C131.852,-60.195 134.891,-65.284 138.633,-70.419C141.499,-74.695 141.259,-76.515 138.747,-73.514C133.132,-67.633 124.162,-58.816 121.507,-54.793C120.396,-53.1 119.655,-50.877 118.933,-50.432C118.201,-49.986 115.476,-48.176 113,-46.347C111.439,-45.203 109.638,-42.694 108.733,-41.4C107.823,-40.11 104.179,-35.913 101.614,-33.99C99.532,-33.066 97.375,-31.448 97.539,-30.116C97.624,-29.488 97.117,-28.723 96.183,-28.161C93.89,-26.782 89.815,-26.716 90.374,-26.004M65.133,-49.972C63.586,-48.907 70.175,-50.633 71.535,-49.423C73.308,-47.88 71.802,-43.303 73.926,-43.707C78.334,-44.542 79.713,-37.868 82.856,-37.723C83.939,-37.671 91.001,-38.22 90.795,-39.777C90.725,-40.354 89.398,-40.091 88.746,-40.912C88.384,-41.357 89.154,-43.322 86.542,-42.178C86.856,-42.628 87.405,-43.383 87.296,-44.016C86.58,-44.101 85.735,-45.062 85.505,-45.644C85.36,-46.089 86.082,-46.45 86.204,-46.961C86.466,-47.946 85.951,-47.815 85.42,-47.829C83.499,-47.895 82.128,-48.012 80.328,-48.626C79.432,-48.94 77.355,-44.63 76.609,-46.188C76.351,-46.75 76.294,-47.182 76.483,-47.777C76.783,-48.799 79.156,-48.875 78.804,-49.24C74.602,-53.339 69.364,-52.833 65.133,-49.972M82.25,44.528C88.849,43.337 96.108,36.12 107.528,34.506C120.752,32.621 129.25,36.56 130.708,35.829C132.898,34.727 135.267,33.559 135.229,33.376C135.027,32.115 133.644,31.538 132.828,31.585C129.315,31.829 116.808,31.106 110.951,30.384C106.355,29.812 92.146,30.342 89.112,35.074C88.287,36.345 84.83,40.636 81.087,41.531C78.574,41.93 80.309,44.88 82.25,44.528M42.619,74.795C42.295,76.117 43.88,76.933 45.348,75.128C57.363,60.281 61.204,59.244 66.559,54.643C61.654,52.603 59.989,46.015 59.989,46.015C59.342,45.227 43.655,70.513 42.619,74.795M35.781,82.65C35.627,81.646 33.333,84.038 30.811,85.252C28.236,86.491 24.297,88.249 20.761,90.453C14.195,94.566 8.314,111.88 0.947,121.353C-2.495,125.756 -5.708,121.775 -7.949,122.591C-10.364,123.463 -10.059,128.824 -11.377,131.529C-12.502,133.874 -15.762,138.123 -16.029,139.858C-16.779,144.623 -17.53,145.246 -16.521,146.344C-16.029,146.888 -13.802,138.746 -9.637,135.516C-7.579,133.912 -5.51,132.922 -3.151,130.676C-1.914,129.494 2.124,124.228 3.372,121.906C6.931,115.228 11.963,108.939 16.432,103.692C19.799,99.757 24.062,93.427 29.132,91.25C34.956,88.718 38.792,85.515 38.141,85.135C36.213,83.996 36.049,84.155 35.781,82.65M121.718,43.665C104.283,53.879 102.102,80.891 99.93,83.799C96.395,88.549 94.002,83.696 91.888,86.476C90.26,88.629 92.366,90.636 88.933,99.411C87.907,102.022 87.194,105.502 87.452,107.359C87.77,109.629 87.127,111.238 88.403,111.106C89.022,111.045 89.679,104.062 92.924,99.734C93.388,99.12 96.342,95.091 97.361,94.2C100.094,91.78 102.298,85.548 102.505,84.324C104.451,73.209 109.333,69.158 115.449,57.996C117.268,54.658 118.192,49.767 123.889,47.595C124.602,47.314 123.496,42.69 121.718,43.665M69.612,16.587C69.026,18.327 67.788,26.431 67.211,29.498C67,30.68 65.228,33.268 65.373,33.376C65.63,33.578 70.363,31.721 71.648,31.308C74.907,30.211 77.134,27.95 72.388,26.614C69.247,25.737 70.18,18.923 70.226,16.906C70.241,16.372 69.744,16.222 69.612,16.587M-3.203,32.945C-1.524,31.908 5.496,27.641 7.02,26.332L9.318,24.105C14.42,19.143 26.37,7.513 29.197,5.815C30.89,4.77 32.86,3.696 33.943,2.814C35.472,1.558 36.832,-1.974 40.387,-5.107C41.498,-6.101 48.926,-13.332 51.942,-16.212C53.851,-18.612 56.059,-21.098 57.94,-21.778C61.297,-23.021 63.197,-21.9 65.772,-22.922C68.351,-23.949 72.956,-27.762 72.956,-27.762C72.956,-27.762 73.017,-28.686 72.187,-29.778C69.087,-30.829 62.081,-32.161 60.829,-39.237C59.103,-49.071 65.411,-52.523 68.505,-53.325C70.461,-53.832 74.701,-54.263 77.866,-52.387C80.98,-50.54 82.598,-49.499 87.01,-49.132C88.352,-49.006 88.165,-47.482 87.381,-46.445C87.057,-46 88.427,-45.264 88.568,-45.076C88.704,-44.902 88.619,-44.185 88.619,-44.185C88.619,-44.185 89.144,-44.316 89.651,-43.8C90.138,-43.289 90.012,-42.661 90.565,-42.361C91.128,-42.046 92.732,-42.131 92.98,-40.672C93.244,-39.195 92.052,-37.624 90.49,-36.56C89.144,-35.664 88.694,-35.171 86.795,-34.177C87.541,-32.949 87.728,-29.535 88.394,-29.83C90.528,-30.777 93.932,-31.307 94.889,-33.464C96.324,-36.696 99.185,-36.419 99.982,-37.343C100.775,-38.285 107.913,-45.193 109.098,-46.539C112.241,-50.066 115.777,-51.44 117.034,-52.969C117.919,-54.052 118.994,-56.017 120.021,-57.719C121.728,-60.561 133.353,-72.501 138.32,-77.612L140.542,-79.896C141.87,-81.439 146.124,-88.45 146.934,-89.843C147.328,-90.537 149.921,-92.033 151.844,-93.538C152.234,-93.838 156.13,-96.305 157.645,-97.248C158.958,-98.083 161.092,-97.492 157.814,-95.297C157.275,-94.814 156.763,-93.9 155.891,-93.52C155.657,-93.172 154.78,-92.399 154.663,-92.178C154.813,-92.033 155.792,-90.87 154.274,-88.999C153.58,-88.028 153.017,-86.33 152.763,-85.768C150.241,-80.191 146.667,-79.437 145.71,-77.701C144.753,-75.981 140.462,-65.645 135.83,-58.667C133.147,-54.624 128.963,-50.066 128.312,-48.738C127.646,-47.407 126.426,-44.584 124.958,-42.066C120.311,-34.074 110.81,-26.022 109.22,-24.334C108.33,-23.382 106.867,-21.431 106.805,-19.917C106.777,-19.227 107.438,-14.589 107.528,-11.419C107.64,-7.208 103.649,-2.447 103.481,-0.9C103.021,3.255 103.068,7.672 101.731,10.674C94.889,26.07 92.84,28.569 92.84,28.569C92.84,28.569 107.429,27.083 110.75,27.496C114.046,27.899 123.81,28.818 126.727,28.785C129.644,28.771 134.047,28.743 135.318,29.217C136.782,29.77 138.094,31.167 138.282,32.181C138.46,33.212 140.171,36.654 139.398,38.478C137.696,42.427 135.182,44.978 133.912,46.502L132.148,48.533C130.488,50.521 119.904,64.567 110.721,78.786C110.092,79.761 104.166,89.046 103.706,90.022C102.721,92.076 100.849,96.451 98.041,98.392C96.568,99.392 92.216,105.69 90.875,109.095C89.787,111.824 88.717,114.3 88.291,114.121C85.505,112.87 86.317,111.65 86.237,110.44C86.171,109.479 85.711,106.595 85.805,104.606C85.899,102.768 87.077,98.806 87.832,95.837C88.746,92.174 88.413,89.079 88.3,88.184C88.197,87.274 88.108,85.191 89.214,84.174C91.475,82.05 95.579,84.272 96.737,83.297C100.849,79.864 100.929,61.715 107.87,51.858C107.453,51.91 106.867,52.032 106.037,52.219C103.79,52.796 91.892,53.227 88.717,54.123C85.547,55.005 78.143,59.178 76.712,59.347C75.277,59.53 75.081,59.718 75.081,59.718C75.081,59.718 71.193,66.241 69.814,67.615C68.44,68.994 65.026,72.689 63.727,74.044C62.432,75.414 56.097,80.694 53.658,82.598C52.256,83.677 49.846,87.555 49.353,88.122C48.021,89.661 44.129,90.022 42.586,91.349C41.029,92.667 39.303,94.744 37.385,96.222C35.453,97.699 18.51,112.166 6.551,124.171C5.735,124.992 3.592,127.229 2.954,128.073C1.562,129.879 -3.761,135.998 -6.917,137.302C-8.554,137.977 -11.391,141.663 -13.422,144.707C-15.049,147.141 -16.611,149.35 -16.986,149.087C-19.443,147.282 -18.402,146.273 -18.229,145.063C-18.097,144.098 -17.905,141.199 -17.431,139.258C-16.836,136.777 -14.998,133.86 -13.638,131.107C-11.978,127.726 -11.687,124.565 -11.607,123.651C-11.518,122.746 -11.161,120.701 -9.895,119.918C-7.227,118.314 -3.822,120.889 -2.307,120.683C2.354,120.087 8.755,98.557 18.191,89.956C21.821,86.636 34.801,81.304 36.072,79.17C38.225,75.555 39.43,76.07 39.937,74.448C40.471,72.797 42.089,69.008 42.741,67.751C43.327,66.654 52.129,52.899 53.021,51.042C53.916,49.18 56.664,45.443 57.616,44.467L59.061,43.004C59.061,43.004 58.545,41.944 59.141,40.139C59.497,39.032 64.693,29.831 65.387,27.359C65.861,25.723 67.295,15.476 67.295,15.476C67.295,15.476 61.382,29.911 60.951,30.91C59.548,34.136 57.363,36.926 53.011,39.51C51.722,40.279 48.326,41.447 45.287,42.418C43.613,44.312 41.606,46.061 39.191,47.197C33.174,50.001 25.807,49.461 23.997,49.269C20.972,51.614 17.436,53.71 13.342,54.559C4.933,56.304 -0.605,55.023 -2.959,54.222C-4.779,55.319 -6.261,56.064 -7.302,56.383C-20.306,60.341 -30.276,60.027 -37.671,55.22C-35.946,53.147 -27.692,48.242 -14.721,40.987C-12.934,39.951 -4.91,34.089 -3.203,32.945M-8.052,51.623C-3.095,49.223 52.875,7.26 62.052,0.23C62.099,-0.595 61.992,-1.242 61.978,-1.871C61.95,-2.218 62.184,-2.569 62.358,-2.733C63.253,-3.522 65.533,-2.241 66.245,-1.524C73.054,5.379 80.759,7.133 80.389,5.393C80.178,4.409 74.992,2.27 70.991,-5.322C69.411,-8.319 63.506,-5.918 61.752,-4.502C61.19,-4.047 55.065,1.89 51.229,5.97C48.443,8.198 44.382,11.269 40.593,12.751C40.358,12.836 40.143,12.878 39.904,12.892C39.205,13.455 38.614,13.877 38.173,14.083C36.841,14.749 32.292,18.923 28.245,21.62C21.272,26.234 10.941,30.544 9.22,31.496C7.489,32.467 6.007,37.301 0.431,39.843C-0.558,40.279 -3.222,42.361 -4.024,42.816C-4.249,42.943 -5.145,42.559 -4.896,41.663C-4.727,41.1 -4.24,40.369 -2.725,39.144C-2.317,38.282 -0.741,37.24 -0.685,37.086C-0.685,36.776 -3.151,38.451 -3.883,38.765C-4.896,40.204 -27.11,52.27 -29.938,54.222C-28.536,54.934 -17.689,56.28 -8.052,51.623" style="fill:rgb(12,126,165);fill-rule:nonzero;"/>
            </g>
            <g transform="matrix(1,0,0,1,496.807,618.088)">
                <path d="M0,-40.747C-0.778,-38.225 -20.55,15.594 -20.55,15.594L-31.969,15.594L-3.962,-57.006L4.062,-57.006L32.733,15.594L20.315,15.594L12.142,-6.715L-4.38,-6.715L-0.844,-16.605L8.544,-16.605C4.16,-28.667 0.197,-39.734 0,-40.747M785.399,-40.747C784.635,-38.225 764.864,15.594 764.864,15.594L753.44,15.594L781.446,-57.006L789.47,-57.006L818.137,15.594L805.729,15.594L797.555,-6.715L781.029,-6.715L784.56,-16.605L793.954,-16.605C789.569,-28.667 785.601,-39.729 785.399,-40.747M55.422,15.594L43.89,15.594L43.89,-56.785L55.422,-56.785L55.422,15.594ZM113.479,15.594C102.632,-2.297 97.033,-12.122 94.087,-13.585L94.087,-22.744C101.413,-22.87 106.777,-28.526 106.777,-35.378C106.777,-41.629 102.932,-46.792 93.604,-46.792L87.006,-46.792L87.006,15.594L75.475,15.594L75.475,-56.785L93.487,-56.785C111.612,-56.785 118.53,-47.674 118.53,-36.588C118.53,-26.687 112.048,-20.329 104.906,-17.463C107.889,-15.817 115.566,-2.958 126.882,15.594L113.479,15.594ZM168.849,-33.502C168.849,-41.301 163.906,-46.792 154.133,-46.792L149.523,-46.792L149.523,15.594L137.987,15.594L137.987,-56.785L155.235,-56.785C170.72,-56.785 180.713,-48.663 180.713,-33.82C180.713,-23.489 174.064,-11.372 156.628,-10.204L156.628,-19.536C165.064,-20.263 168.849,-25.651 168.849,-33.502M381.743,-56.785L378.558,-46.9L358.674,-46.9L358.674,15.594L347.035,15.594L347.035,-46.9L326.054,-46.9L326.054,-56.785L381.743,-56.785ZM432.268,-3.404C432.268,8.789 421.501,16.7 407.545,16.7C397.551,16.7 390.751,13.399 386.132,10.435L390.972,1.769C394.592,4.282 400.304,7.148 407.113,7.148C413.05,7.148 419.963,4.498 419.963,-2.081C419.963,-13.186 402.499,-15.372 393.701,-25.164C390.751,-28.446 388.768,-32.517 388.768,-38.121C388.768,-48.663 396.895,-57.447 411.507,-57.447C419.194,-57.447 424.915,-55.463 428.643,-53.484L428.535,-42.735C423.588,-45.699 417.984,-47.791 412.051,-47.791C405.786,-47.791 400.637,-45.146 400.637,-39.438C400.637,-25.164 432.268,-25.6 432.268,-3.404M249.505,-20.212C249.505,-36.471 240.389,-47.463 225.227,-47.463C210.624,-47.463 200.851,-37.122 200.851,-20.212C200.851,-3.404 210.624,6.923 225.227,6.923C239.728,6.923 249.505,-3.404 249.505,-20.212M188.653,-19.996C188.653,-30.754 192.386,-40.198 198.975,-46.9C205.456,-53.484 214.572,-57.447 225.227,-57.447C236.651,-57.447 246.208,-53.273 252.689,-46.126C258.613,-39.547 261.801,-30.637 261.801,-20.432C261.801,-9.561 258.073,0.005 251.372,6.59C244.778,13.07 235.882,16.7 225.227,16.7C215.009,16.7 206.445,13.516 200.072,7.795C192.827,1.094 188.653,-8.675 188.653,-19.996M525.404,10.332C517.816,14.82 510.35,16.7 502.884,16.7C480.351,16.7 467.075,0.892 467.075,-19.77C467.075,-40.747 482.241,-57.447 505.299,-57.447C513.328,-57.447 519.903,-55.59 523.968,-53.386L523.752,-42.402C518.037,-45.915 512.437,-47.674 505.403,-47.674C488.815,-47.674 479.591,-35.378 479.591,-20.643C479.591,-5.069 489.041,6.482 504.633,6.482C511.011,6.482 516.944,4.61 522.097,1.769L525.404,10.332ZM689.568,15.594L678.139,15.594L678.139,-30.533C678.139,-33.174 678.139,-35.143 678.355,-38.225C677.159,-35.589 675.18,-32.732 674.068,-30.866L657.608,-5.069L651.558,-5.069L633.771,-31.194C632.551,-33.057 631.027,-35.143 629.587,-38.225C629.7,-35.04 629.7,-33.174 629.7,-30.754L629.7,15.594L618.286,15.594L618.286,-56.785L629.269,-56.785L650.25,-26.041C652.215,-23.062 653.538,-20.976 654.629,-18.781C655.727,-20.873 656.942,-23.062 658.921,-26.242L678.472,-56.785L689.568,-56.785L689.568,15.594ZM892.787,15.594L882.009,15.594L847.963,-28.896C844.441,-33.502 842.481,-36.353 840.722,-39.316L840.722,15.594L829.294,15.594L829.294,-56.785L840.929,-56.785L873.671,-13.946C877.621,-8.792 879.599,-6.04 881.246,-3.076C881.358,-6.04 881.246,-9.669 881.246,-13.186L881.246,-56.785L892.787,-56.785L892.787,15.594ZM593.694,-20.212C593.694,-36.471 584.572,-47.463 569.416,-47.463C554.807,-47.463 545.025,-37.122 545.025,-20.212C545.025,-3.404 554.807,6.923 569.416,6.923C583.911,6.923 593.694,-3.404 593.694,-20.212M532.836,-19.996C532.836,-30.754 536.579,-40.198 543.167,-46.9C549.634,-53.484 558.765,-57.447 569.416,-57.447C580.848,-57.447 590.392,-53.273 596.877,-46.126C602.81,-39.547 605.999,-30.637 605.999,-20.432C605.999,-9.561 602.256,0.005 595.55,6.59C588.966,13.07 580.07,16.7 569.416,16.7C559.192,16.7 550.625,13.516 544.26,7.795C537.015,1.094 532.836,-8.675 532.836,-19.996M962.056,-56.785L937.905,-13.186L937.905,15.594L926.354,15.594L926.354,-13.407L901.749,-56.785L914.5,-56.785L926.476,-35.143C928.333,-31.626 930.749,-27.358 932.296,-23.837L938.116,-34.936L949.985,-56.785L962.056,-56.785ZM312.083,15.594C301.255,-2.297 295.651,-12.122 292.692,-13.585L292.692,-22.744C300.026,-22.87 305.396,-28.526 305.396,-35.378C305.396,-41.629 301.55,-46.792 292.218,-46.792L285.629,-46.792L285.629,15.594L274.088,15.594L274.088,-56.785L292.105,-56.785C310.222,-56.785 317.148,-47.674 317.148,-36.588C317.148,-26.687 310.663,-20.329 303.525,-17.463C306.489,-15.817 314.175,-2.958 325.491,15.594L312.083,15.594ZM740.515,-33.502C740.515,-41.301 735.578,-46.792 725.804,-46.792L721.194,-46.792L721.194,15.594L709.649,15.594L709.649,-56.785L726.906,-56.785C742.391,-56.785 752.38,-48.663 752.38,-33.82C752.38,-23.489 745.74,-11.372 728.294,-10.204L728.294,-19.536C736.74,-20.263 740.515,-25.651 740.515,-33.502" style="fill:rgb(12,126,165);fill-rule:nonzero;"/>
            </g>
            <g transform="matrix(1,0,0,1,994.163,716.177)">
                <path d="M0,-35.37C-0.567,-33.428 -16.071,8.727 -16.071,8.727L-21.971,8.727L-1.618,-44.65L1.688,-44.65L22.121,8.727L15.907,8.727L9.004,-10.163L-3.935,-10.177L-1.96,-15.58L7.034,-15.58C3.484,-25.371 0.174,-34.558 0,-35.37M194.444,-35.37C193.877,-33.428 178.369,8.727 178.369,8.727L172.479,8.727L192.827,-44.65L196.138,-44.65L216.561,8.727L210.333,8.727L203.444,-10.163L190.506,-10.177L192.484,-15.58L201.475,-15.58C197.92,-25.371 194.618,-34.558 194.444,-35.37M-249.861,-4.287C-249.861,3.957 -257.046,9.528 -266.664,9.528C-273.6,9.528 -278.276,7.264 -281.188,5.336L-278.365,0.563C-276.339,2.021 -272.062,4.276 -266.739,4.276C-261.89,4.276 -256.165,1.937 -256.165,-3.715C-256.165,-13.08 -268.916,-15.016 -275.462,-22.047C-277.713,-24.462 -279.256,-27.528 -279.256,-31.65C-279.256,-39.168 -273.6,-44.898 -263.912,-44.898C-258.256,-44.898 -254.462,-43.524 -252.126,-42.314L-252.126,-35.998C-254.95,-37.949 -259.386,-39.477 -263.748,-39.477C-268.916,-39.477 -273.436,-37.391 -273.436,-32.223C-273.436,-20.344 -249.861,-20.26 -249.861,-4.287M-140.336,-9.052C-140.336,-4.198 -141.701,0.731 -145.176,4.276C-148.332,7.423 -153.171,9.528 -160.281,9.528C-166.982,9.528 -171.418,7.582 -174.331,4.844C-178.608,0.647 -179.489,-5.572 -179.489,-10.407L-179.489,-44.481L-173.609,-44.481L-173.609,-10.341C-173.609,-6.702 -172.792,-2.257 -169.81,0.731C-167.793,2.832 -164.712,4.196 -160.117,4.196C-155.024,4.196 -151.722,2.832 -149.532,0.647C-147.122,-1.942 -146.226,-5.651 -146.226,-9.849L-146.226,-44.481L-140.336,-44.481L-140.336,-9.052ZM-92.962,-44.481L-95.067,-38.999L-110.163,-38.999L-110.163,8.727L-116.058,8.727L-116.058,-38.999L-131.318,-38.999L-131.318,-44.481L-92.962,-44.481ZM-196.363,-17.605C-196.363,-29.967 -203.219,-39.233 -216.303,-39.233C-228.576,-39.233 -236.252,-30.765 -236.252,-17.605C-236.252,-4.446 -228.576,4.027 -216.303,4.027C-204.035,4.027 -196.363,-4.446 -196.363,-17.605M-189.98,-17.605C-189.98,-9.281 -192.962,-2.257 -197.971,2.583C-202.661,7.113 -208.954,9.528 -216.303,9.528C-223.492,9.528 -229.706,7.17 -234.306,2.916C-239.559,-1.942 -242.625,-9.112 -242.625,-17.605C-242.625,-25.601 -239.797,-32.448 -235.108,-37.307C-230.423,-42.061 -223.9,-44.898 -216.303,-44.898C-208.223,-44.898 -201.366,-41.738 -196.682,-36.5C-192.479,-31.65 -189.98,-25.108 -189.98,-17.605M-44.786,8.727L-50.676,8.727L-50.676,-15.58L-79.817,-15.58L-79.817,8.727L-85.711,8.727L-85.711,-44.481L-79.817,-44.481L-79.817,-20.991L-50.676,-20.991L-50.676,-44.481L-44.786,-44.481L-44.786,8.727ZM56.617,-44.481L54.357,-38.999L36.443,-38.999L36.443,-20.991L54.202,-20.991L54.202,-15.58L36.443,-15.58L36.443,8.727L30.539,8.727L30.539,-44.481L56.617,-44.481ZM73.092,-38.999L73.092,8.727L67.197,8.727L67.197,-44.481L78.186,-44.481C90.688,-44.481 95.775,-38.122 95.775,-30.127C95.775,-22.524 90.94,-17.765 85.36,-15.743C87.063,-14.848 93.121,-4.925 101.755,8.727L94.729,8.727C86.256,-4.724 81.257,-13.258 78.894,-13.877L78.894,-19.143C84.915,-19.326 89.393,-24.02 89.393,-29.47C89.393,-34.558 86.649,-38.999 78.186,-38.999L73.092,-38.999ZM115.697,8.727L109.798,8.727L109.798,-44.481L115.697,-44.481L115.697,8.727ZM166.617,5.575C161.692,8.314 156.604,9.528 151.689,9.528C135.933,9.528 126.169,-1.773 126.169,-17.267C126.169,-32.696 136.988,-44.898 152.651,-44.898C159.02,-44.898 163.793,-43.276 166.218,-41.738L166.218,-35.44C162.42,-37.864 158.7,-39.562 152.412,-39.562C140.538,-39.562 132.462,-30.028 132.462,-17.685C132.462,-5.005 139.881,4.117 152.327,4.117C156.849,4.117 161.294,2.668 164.835,0.731L166.617,5.575Z" style="fill:rgb(12,126,165);fill-rule:nonzero;"/>
            </g>
        </g>
    </g>
</svg>
