<svg id="Layer_1" data-name="Layer 1" xmlns="http://www.w3.org/2000/svg" viewBox="0 0 158.32 37.72"><defs><style>.cls-1{fill:#c7202f;}.cls-2{fill:#1a1635;}</style></defs><path class="cls-1" d="M118.19,8.36l-.64,2.32a1.54,1.54,0,0,0,1.35,1.66h0c3.84.71,6,2.43,6,5.11l-5.84,0a1.86,1.86,0,0,0-1.87,1.85v9.49a1.87,1.87,0,0,0,1.87,1.86h14.63a1.89,1.89,0,0,0,1.94-1.86s0-5.8,0-7.9c0-1.22.37-13.55-15.85-13.71a1.66,1.66,0,0,0-1.6,1.19" transform="translate(-1.87 -1.4)"/><polygon class="cls-2" points="31.89 7.83 25.34 25.64 18.74 7.83 15.93 7.83 9.38 25.69 2.78 7.83 0 7.83 8.26 29.37 10.6 29.37 17.28 10.99 24.26 29.37 26.6 29.37 34.62 7.83 31.89 7.83"/><polygon class="cls-2" points="57.98 27.31 57.98 29.37 76.28 29.37 76.28 26.93 61.58 26.93 76.28 9.93 76.28 7.83 57.98 7.83 57.98 10.27 72.54 10.27 57.98 27.31"/><path class="cls-2" d="M101.05,19.93c0-6.75-4.31-11.29-10.72-11.29a11.18,11.18,0,0,0-7.86,3,11.23,11.23,0,0,0-3.23,8.24c0,6.62,4.66,11.43,11.09,11.43A10.84,10.84,0,0,0,100,26.11l-2.22-1a8.53,8.53,0,0,1-7.31,3.75,8.07,8.07,0,0,1-8.53-7.61l0-.24H101C101.05,20.68,101.05,20.28,101.05,19.93ZM81.91,18.86l0-.24c.57-4.7,3.7-7.51,8.39-7.51s7.72,2.88,8.15,7.51l0,.24Z" transform="translate(-1.87 -1.4)"/><polyline class="cls-2" points="136.51 0.02 136.51 29.37 138.96 29.37 138.96 0.02"/><polyline class="cls-2" points="141.77 0.02 141.77 29.37 144.21 29.37 144.21 19.25 154.79 29.37 158.32 29.37 147.08 18.6 158.32 7.83 154.77 7.83 144.21 17.98 144.21 0.02"/><path class="cls-2" d="M48.94,31.81h0L58.28,9.22H55.61L48.44,27,40.78,9.22H38.11L46.79,30l-.06.22-.39,1c-.89,2.1-2.91,5.57-6.55,5.38l-.06,2.53h.4C43.86,39.12,47.16,36.39,48.94,31.81Z" transform="translate(-1.87 -1.4)"/><path class="cls-2" d="M105.56,1.41V9.23h-3.5v2.4h3.5v.45c0,9.15,0,14,0,14.34h0a5.55,5.55,0,0,0,.47,2.17,3.59,3.59,0,0,0,1.57,1.59,7.23,7.23,0,0,0,3.33.61,14,14,0,0,0,3.44-.38V28.06a14.78,14.78,0,0,1-3.06.39c-2.79-.14-3.33-1.35-3.29-3.27V11.63h6.35V9.23H108V1.4" transform="translate(-1.87 -1.4)"/></svg>